<svg xmlns="http://www.w3.org/2000/svg" viewBox="0 0 48 48" id="Cog--Streamline-Ultimate" height="48" width="48">
  <desc>
    Cog Streamline Icon: https://streamlinehq.com
  </desc>
  <path d="M45 19h-3.72a19.02 19.02 0 0 0 -1.52 -3.68l2.62 -2.64a2.92 2.92 0 0 0 0.88 -2.12 2.94 2.94 0 0 0 -0.88 -2.12l-2.82 -2.82a2.98 2.98 0 0 0 -4.24 0l-2.64 2.64a18 18 0 0 0 -3.68 -1.54V3A3 3 0 0 0 26 0h-4a3 3 0 0 0 -3 3v3.72a18 18 0 0 0 -3.68 1.54L12.68 5.62a2.98 2.98 0 0 0 -4.24 0L5.62 8.44a2.94 2.94 0 0 0 -0.88 2.12 2.88 2.88 0 0 0 0.88 2.12l2.62 2.64a19.02 19.02 0 0 0 -1.52 3.68H3A3 3 0 0 0 0 22v4a3 3 0 0 0 3 3h3.72a18.52 18.52 0 0 0 1.52 3.68l-2.62 2.64a3 3 0 0 0 0 4.24l2.82 2.82a3.06 3.06 0 0 0 4.24 0l2.64 -2.62a18.52 18.52 0 0 0 3.68 1.52v3.72A3 3 0 0 0 22 48h4a3 3 0 0 0 3 -3v-3.72a18.52 18.52 0 0 0 3.68 -1.52l2.64 2.62a2.98 2.98 0 0 0 4.24 0l2.82 -2.82a3 3 0 0 0 0 -4.24l-2.62 -2.64a18.52 18.52 0 0 0 1.52 -3.68h3.72A3 3 0 0 0 48 26v-4a3 3 0 0 0 -3 -3ZM24 34a10 10 0 1 1 10 -10 10 10 0 0 1 -10 10Z" fill="#000000" stroke-width="2"></path>
</svg>